<svg width="16" height="16" viewBox="0 0 16 16" fill="none" xmlns="http://www.w3.org/2000/svg">
<rect width="16" height="16" fill="#262626"/>
<g id="UI-kit">
<path d="M-811 -122C-811 -123.105 -810.105 -124 -809 -124H332C333.105 -124 334 -123.105 334 -122V1340C334 1341.1 333.105 1342 332 1342H-809C-810.105 1342 -811 1341.1 -811 1340V-122Z" fill="white"/>
<path d="M-809 -123H332V-125H-809V-123ZM333 -122V1340H335V-122H333ZM332 1341H-809V1343H332V1341ZM-810 1340V-122H-812V1340H-810ZM-809 1341C-809.552 1341 -810 1340.55 -810 1340H-812C-812 1341.66 -810.657 1343 -809 1343V1341ZM333 1340C333 1340.55 332.552 1341 332 1341V1343C333.657 1343 335 1341.66 335 1340H333ZM332 -123C332.552 -123 333 -122.552 333 -122H335C335 -123.657 333.657 -125 332 -125V-123ZM-809 -125C-810.657 -125 -812 -123.657 -812 -122H-810C-810 -122.552 -809.552 -123 -809 -123V-125Z" fill="white" fill-opacity="0.1"/>
<g id="favicon">
<rect width="16" height="16" rx="2" fill="#F0F0F0"/>
<g id="logo">
<path d="M1.5 4.75H2.78936C3.62164 4.75 4.18377 4.78747 4.47576 4.86242C4.77047 4.93736 4.99423 5.06048 5.14704 5.23178C5.29985 5.40308 5.39536 5.59445 5.43356 5.8059C5.47177 6.01467 5.49087 6.42686 5.49087 7.04246V9.31887C5.49087 9.90236 5.46222 10.2931 5.40491 10.4912C5.35034 10.6866 5.25346 10.8405 5.11429 10.9529C4.97513 11.0626 4.80321 11.1403 4.59855 11.1858C4.39389 11.2286 4.08554 11.25 3.67349 11.25H1.5V4.75ZM3.22324 5.86211V10.1379C3.47156 10.1379 3.62437 10.0897 3.68168 9.99336C3.73898 9.89433 3.76763 9.62801 3.76763 9.19441V6.66909C3.76763 6.37467 3.75808 6.18597 3.73898 6.103C3.71988 6.02002 3.67622 5.9598 3.608 5.92233C3.53978 5.88218 3.41152 5.86211 3.22324 5.86211Z" fill="#00B068"/>
<path d="M6.52645 4.75H9.39987V6.0508H8.24969V7.28335H9.3262V8.51992H8.24969V9.9492H9.51448V11.25H6.52645V4.75Z" fill="#00B068"/>
<path d="M14.5 4.75L13.6241 11.25H11.0085L10.0139 4.75H11.8312C12.0414 6.54061 12.1914 8.0542 12.2815 9.29077C12.3715 8.04082 12.4657 6.93005 12.5639 5.95846L12.6826 4.75H14.5Z" fill="#00B068"/>
</g>
</g>
</g>
</svg>
